<?xml version="1.0" standalone="no"?>
<!DOCTYPE svg PUBLIC "-//W3C//DTD SVG 20010904//EN"
 "http://www.w3.org/TR/2001/REC-SVG-20010904/DTD/svg10.dtd">
<svg version="1.0" xmlns="http://www.w3.org/2000/svg"
 width="507.000000pt" height="507.000000pt" viewBox="0 0 507.000000 507.000000"
 preserveAspectRatio="xMidYMid meet">
<metadata>
Created by potrace 1.11, written by Peter Selinger 2001-2013
</metadata>
<g transform="translate(0.000000,507.000000) scale(0.100000,-0.100000)"
fill="#000000" stroke="none">
<path d="M2467 5006 c-8 -9 -29 -52 -46 -96 -31 -82 -37 -105 -46 -170 -3 -19
-7 -42 -10 -50 -2 -8 -7 -37 -11 -65 -3 -27 -8 -53 -10 -57 -3 -5 -81 -20
-119 -22 -5 -1 -35 53 -65 119 -57 125 -142 264 -173 284 -15 10 -37 6 -116
-18 -54 -17 -104 -37 -111 -45 -12 -15 -10 -234 2 -281 7 -26 20 -104 18 -107
-1 -2 3 -15 9 -30 10 -26 8 -27 -76 -68 -47 -23 -89 -38 -93 -33 -4 4 -38 49
-76 98 -69 90 -177 200 -218 222 -19 10 -31 7 -82 -23 -32 -18 -74 -42 -92
-51 -18 -9 -35 -27 -38 -40 -10 -38 36 -199 92 -322 l52 -116 -60 -56 -61 -57
-31 17 c-17 9 -33 18 -36 21 -12 12 -90 60 -99 60 -5 0 -14 6 -20 14 -17 20
-212 101 -235 97 -37 -6 -159 -161 -149 -189 17 -46 130 -195 198 -261 87 -85
87 -82 25 -179 l-40 -62 -35 14 c-19 8 -39 15 -43 16 -4 0 -25 6 -47 12 -22 6
-42 12 -45 13 -89 25 -115 29 -222 41 -39 4 -50 1 -67 -18 -12 -12 -21 -25
-21 -29 0 -3 -10 -28 -22 -55 -12 -27 -22 -52 -23 -56 0 -3 -3 -10 -7 -14 -17
-17 -6 -54 25 -82 83 -77 142 -121 231 -171 53 -30 96 -61 96 -67 0 -7 -5 -37
-12 -66 -6 -29 -11 -59 -9 -65 2 -15 13 -14 -146 -17 -71 -2 -144 -6 -163 -9
-19 -4 -51 -9 -72 -12 -38 -7 -65 -29 -66 -55 0 -8 -6 -52 -12 -98 -10 -66
-10 -86 1 -98 12 -15 118 -68 184 -92 23 -9 190 -52 199 -52 1 0 2 -10 3 -22
0 -13 4 -68 8 -124 l7 -100 -88 -18 c-49 -9 -133 -34 -187 -54 -77 -28 -102
-42 -112 -63 -8 -14 -13 -28 -11 -30 2 -2 7 -42 10 -89 5 -60 12 -90 24 -102
26 -26 201 -57 329 -59 l112 -1 35 -89 c40 -100 40 -99 25 -99 -5 0 -24 -13
-42 -30 -18 -16 -57 -49 -87 -72 -63 -48 -179 -177 -184 -205 -2 -10 13 -44
34 -75 21 -31 36 -58 34 -60 -2 -2 10 -19 26 -36 21 -23 36 -31 52 -28 83 15
194 52 275 91 52 25 98 45 102 45 5 -1 117 -138 133 -165 4 -6 -28 -57 -73
-115 -83 -108 -169 -254 -169 -287 0 -19 117 -146 152 -164 28 -15 193 77 312
175 l103 85 54 -36 c30 -20 55 -40 57 -45 2 -4 10 -8 18 -8 8 0 14 -2 14 -5 0
-2 -17 -64 -39 -137 -21 -73 -42 -160 -45 -193 -4 -33 -9 -68 -12 -78 -3 -9
-3 -30 1 -46 5 -24 19 -33 105 -70 74 -31 104 -39 117 -32 17 9 47 42 119 131
16 19 31 37 34 40 3 3 14 23 25 45 45 92 86 147 103 140 9 -4 49 -16 87 -27
l70 -20 0 -39 c0 -21 -2 -39 -5 -39 -3 0 -4 -55 -3 -122 5 -237 10 -253 71
-263 20 -4 68 -13 106 -20 45 -9 76 -11 87 -5 27 15 110 192 144 309 l31 106
90 3 90 3 11 -43 c6 -24 19 -72 27 -108 9 -36 20 -74 25 -85 38 -84 61 -139
61 -149 0 -24 37 -44 76 -41 84 6 150 16 177 27 27 11 32 20 42 92 3 21 8 51
12 65 4 14 7 89 7 166 l1 140 60 20 c33 11 66 20 74 20 7 0 41 -45 75 -100 83
-136 192 -265 223 -265 35 0 209 84 217 105 4 10 2 41 -3 69 -6 28 -12 69 -15
91 -8 57 -11 68 -50 184 -20 57 -34 107 -32 110 3 4 31 24 63 46 32 22 61 43
64 48 5 7 53 -32 144 -117 11 -10 57 -43 102 -73 45 -29 85 -58 88 -63 11 -19
65 -6 97 22 18 16 54 48 80 70 32 27 48 49 48 64 0 28 -98 234 -111 234 -5 0
-9 4 -9 10 0 5 -23 41 -51 80 -56 77 -56 77 1 143 11 12 25 30 32 40 13 17 19
15 123 -24 61 -22 119 -43 130 -45 11 -2 55 -11 98 -20 42 -8 86 -13 96 -9 11
3 37 40 61 88 67 132 67 128 3 189 -30 29 -70 68 -88 85 -18 18 -36 33 -39 33
-3 0 -29 16 -56 35 -27 19 -52 35 -56 35 -3 0 -12 6 -20 14 -12 13 -11 23 12
78 14 35 30 71 35 80 5 10 9 24 9 31 0 18 36 51 47 44 39 -24 391 -23 416 2
15 15 55 203 47 226 -4 11 -20 27 -36 35 -16 8 -58 31 -94 51 -36 20 -103 49
-150 63 -126 41 -128 42 -125 85 2 20 4 55 4 77 1 48 8 52 135 79 44 10 87 21
95 25 32 17 87 39 111 45 47 12 63 32 61 72 -8 160 -17 199 -49 211 -50 18
-187 36 -285 36 l-98 1 -9 35 c-13 51 -29 124 -27 125 45 21 228 140 270 175
96 79 95 74 45 191 -48 114 -61 125 -131 110 -23 -5 -68 -12 -100 -16 -32 -3
-86 -15 -120 -26 -34 -11 -70 -22 -80 -24 -9 -2 -21 -7 -27 -10 -8 -5 -60 64
-60 80 0 3 -10 19 -22 35 l-22 30 40 41 c21 23 58 60 81 82 67 68 156 198 156
230 0 17 -11 40 -29 60 -17 18 -43 49 -58 70 -43 59 -65 65 -131 33 -30 -14
-60 -26 -65 -26 -14 0 -116 -57 -181 -101 -32 -21 -64 -39 -72 -39 -14 0 -127
101 -127 113 0 4 26 48 58 99 79 129 143 275 130 302 -8 18 -120 112 -165 139
-18 11 -44 2 -87 -31 -19 -15 -52 -38 -72 -52 -20 -14 -78 -67 -130 -118 l-94
-93 -62 30 c-94 44 -101 51 -89 84 6 15 13 38 16 50 2 12 11 49 20 82 8 33 17
85 20 115 2 30 7 75 10 100 4 29 2 51 -7 62 -12 16 -185 88 -212 88 -14 0 -66
-55 -66 -69 0 -5 -3 -11 -7 -13 -18 -8 -120 -148 -107 -148 3 0 -3 -15 -14
-32 -11 -18 -32 -57 -47 -86 -25 -51 -27 -52 -63 -47 -79 10 -117 17 -123 23
-4 4 -10 56 -13 115 -3 59 -11 129 -17 155 -6 26 -13 57 -14 69 -5 37 -25 91
-39 102 -6 6 -58 13 -113 16 -82 4 -104 3 -116 -9z"/>
</g>
</svg>
